<svg xmlns="http://www.w3.org/2000/svg" width="110.75" height="114.005" viewBox="250.625 330.75 110.75 114.005"><path fill="#262626" d="M350.618 390.782l-.103-.051a14.62 14.62 0 0 0-5.038-.874l-.925.051h-.309c-8.533.669-12.542 7.916-12.646 14.444v.257c0 4.421-1.079 7.711-3.289 10.075l-.36.359c-2.878 2.725-6.579 2.827-7.659 2.827l-.668-.051s-.977-.052-2.313-.411l-.308-.104c-.052 0-.154-.051-.154-.051a12.988 12.988 0 0 1-3.393-1.646l-.154-.153-.72-.565-.154-.154c-1.901-1.696-3.136-3.804-3.752-6.478a15.935 15.935 0 0 1-.463-4.42c0-4.729 1.49-8.379 4.317-10.641 3.033-2.416 6.785-2.673 9.099-2.159.052 0 2.879.463 4.164 3.033.257.359.359.771.411 1.079 0 .154.051.257.051.36 0 .411-.103.771-.205 1.027l-.104.411v.207l.052.874c.154.771.874 1.336 1.748 1.336.359 0 .72-.051 1.079-.153.617-.258 1.028-.617 1.183-1.183.359-1.388-.977-3.341-1.594-4.164-2.262-2.673-5.603-4.112-9.406-4.112-4.37 0-8.688 1.954-11.515 5.192V374.28l.052-27.089c0-4.936 0-10.59 8.738-13.57h-.104c.052 0 .052 0 .104-.052h-11.926l-12.594-.052c.052 0 .052 0 .103.052h-.103c2.21.771 3.855 1.696 5.089 2.725l.052.051c.103.104.257.206.359.309 3.238 3.033 3.238 6.939 3.238 10.486v50.528l-1.285-1.284c-4.163-4.216-17.322-17.528-23.233-24.365l-1.8-2.159c-.103-.103-8.173-9.047-1.645-15.523 3.187-3.187 8.275-4.575 13.057-3.547 4.985 1.079 8.789 4.472 10.743 9.51v-.103c0 .051 0 .051.051.051v-3.804l.052-4.01c-.103-.103-11-7.042-23.594-.925-.103.052-11.36 5.809-6.888 16.397 1.131 2.879 2.878 5.346 4.163 6.837l.36.411.103.103s-.052.052-.103.052c-.515.257-2.57 1.388-4.627 2.827-5.037 3.084-13.519 9.561-13.519 18.351 0 13.262 11.617 22.565 28.22 22.565l2.622-.103.565-.052 1.696-.154c3.547-.359 6.836-1.182 9.715-2.364l.359-.154c.052 0 1.028-.463 1.028-.463l1.389-.719.359-.206c2.262-1.285 4.112-2.673 5.603-4.164.052.104.154.206.206.309 1.594 2.107 6.477 7.557 14.188 8.02h1.027c5.758 0 9.304-2.827 11.258-5.192 1.079-1.388 1.799-2.775 2.21-3.649.154.411.309.822.514 1.233 1.285 2.879 3.393 5.089 6.169 6.374 1.901.874 3.958 1.337 6.22 1.337.873 0 1.747-.104 2.724-.257h.104c7.196-1.234 10.332-7.402 10.794-12.697.516-5.807-1.952-12.85-8.685-15.369m-34.543-57.108h.104c-2.827.977-4.729 2.211-6.015 3.649 1.233-1.438 3.136-2.672 5.911-3.649m-19.944 26.524v.103c-.309-.822-.668-1.646-1.079-2.364.411.719.77 1.438 1.079 2.261m-28.683 18.608c-3.238 2.57-7.607 7.094-8.687 13.364 1.08-6.27 5.449-10.794 8.687-13.364m22.154 38.089c-9.767 2.313-23.079-1.49-28.426-11.874-1.85-3.598-2.621-6.888-2.621-9.869 0-12.131 12.491-18.813 12.646-18.864 0 .051 28.991 29.813 28.991 29.813-.052 5.191-4.01 9.252-10.59 10.794m10.795-19.173s-.051-.052 0 0v-1.131 1.131zm-8.687-64.099c-.051 0-.051 0-.103-.052l11.926.052H291.71zm11.875 77.206l.103-.103c-.001.053-.053.103-.103.103M332.267 410.779c.103-.206.205-.411.257-.565v.051a2.467 2.467 0 0 1-.257.514m13.056 7.504c-5.962 0-9.098-6.58-9.098-13.108 0-9.869 4.935-14.393 9.561-14.393 3.033 0 9.355 3.444 9.355 14.033 0 6.529-3.444 13.468-9.818 13.468M259.635 428.512l-5.037-.052-.052.258c1.439.051 1.8.308 1.8 1.747v9.767c0 1.799-.669 1.902-.823 1.902-.359 0-.565-.206-.668-.617-.154-.72-.514-1.079-1.079-1.079-.411 0-.874.359-.874.977 0 .565.411 1.233 1.542 1.233 2.364 0 3.599-2.056 3.599-6.015v-6.527c0-.258 0-.411.051-.617.154-.565.515-.771 1.542-.822v-.155zm10.743 11.771l-4.78-12.131-.051.051a1.064 1.064 0 0 0-.154.257c-.411.515-.823.926-1.234 1.183 0 .052.309.617.309.617l-3.906 10.332c-.411 1.131-.822 1.542-1.542 1.695l-.052.258 3.495.051.052-.257c-.052-.052-.463-.103-.463-.103-.514-.052-1.131-.206-1.131-.874 0-.309.206-1.028.565-2.005l.822-2.21h4.884c0 .052.822 2.21.822 2.21.411.977.617 1.696.617 1.953 0 .771-.926.926-1.696.926l-.052.257v.052h5.141l.051-.258c-1.028-.205-1.234-.822-1.697-2.004m-4.781-12.08s.103.257.257.668l-.257-.668c0 .052 0 .052 0 0m-3.135 8.534h1.183-1.183zm3.392 0c-1.336 0-3.289-.052-3.341-.052l.052-.154c.359-.874 2.056-5.448 2.21-5.859.052.154 2.313 5.911 2.364 6.014h-1.285v.051zm1.285 0c0-.052 0-.103-.051-.154l.051.154zm11.515 5.705c-3.188 0-5.089-3.393-5.089-6.682 0-3.444 1.645-7.146 5.191-7.146 3.084 0 4.626 2.519 4.986 4.884l.205.051.052-4.574-.206-.052c-.051 0-.668.977-.668.977-.052 0-.052-.052-.103-.052-1.337-1.079-2.673-1.542-4.267-1.542-4.112 0-7.094 3.085-7.094 7.351 0 4.421 2.622 7.197 6.888 7.197 1.748 0 3.29-.566 4.678-1.646 0 .103.515 1.131.515 1.131h.205l.052-4.421-.206-.051c-.565 2.878-2.466 4.575-5.139 4.575m4.42-1.131c.052-.051.154-.103.206-.153-.052.05-.154.102-.206.153m9.612-13.056c-2.364 0-6.836 1.542-6.836 7.453 0 2.622 1.439 7.094 6.733 7.094 5.604 0 7.094-4.523 7.094-7.146 0-5.088-3.649-7.401-6.991-7.401m-.102 14.238c-3.187 0-4.883-3.341-4.883-6.683 0-4.985 2.57-7.196 5.14-7.196 1.646 0 4.986 1.696 4.986 7.042 0 3.291-1.851 6.837-5.243 6.837m14.753-7.402c1.902-.411 2.981-1.645 2.981-3.393 0-1.079-.617-2.21-1.542-2.621-1.028-.514-2.057-.617-3.393-.617h-.463l-4.112.052-.051.257c1.182.103 1.49.206 1.49 1.131v11.36c0 .771-.514.925-1.49.977l-.052.257c.052.052 2.21.052 2.21.052l2.211.051c3.804 0 5.911-1.388 5.911-3.906.103-1.954-1.387-3.394-3.7-3.6m-3.341-6.373l.154.051c.873 0 1.901 0 2.569.257 1.131.411 1.8 1.439 1.8 2.879 0 2.879-2.416 3.187-3.496 3.187h-1.079l.052-6.374zm1.747 13.569c-1.079 0-1.747-.205-1.747-1.336v-5.5l.925.051c2.262 0 4.318.258 4.318 3.29 0 2.262-1.234 3.495-3.496 3.495m31.767.155c-3.188 0-5.089-3.393-5.089-6.682 0-3.444 1.645-7.146 5.191-7.146 3.084 0 4.626 2.519 4.986 4.884l.205.051.052-4.574-.206-.052c-.051 0-.668.977-.668.977-.052 0-.052-.052-.103-.052-1.337-1.079-2.673-1.542-4.267-1.542-4.112 0-7.094 3.085-7.094 7.351 0 3.547 1.696 6.066 4.626 6.889-.925 1.182-1.953 1.696-3.238 1.696-2.262 0-5.14-2.468-7.813-5.295.669-.874 1.646-2.313 1.646-2.313.668-.926 1.233-1.389 2.313-1.543l.052-.205-3.444-.052-.051.206c.051.051.154.051.154.051.309 0 .72.052.874.258l.103.308c-.052.36-1.183 2.005-1.851 3.033-1.491-1.594-2.879-3.29-4.112-4.729.206-.103 1.079-.616 1.079-.616l.823-.463c1.027-.72 1.438-1.336 1.438-2.21 0-1.542-1.645-2.468-2.827-2.468-.771 0-1.542.257-2.21.771-.72.565-1.131 1.439-1.131 2.519 0 .977.411 2.159 1.028 3.084-1.646.874-3.188 2.159-3.188 4.523 0 2.159 1.594 3.804 3.649 3.804 1.954 0 3.085-1.028 4.062-2.159l.309-.411c0 .052.051.052.103.104 3.495 3.598 6.271 4.317 8.07 4.317 1.851 0 3.136-.668 4.369-2.313a8.229 8.229 0 0 0 2.005.258 7.31 7.31 0 0 0 4.678-1.646c0 .104.514 1.131.514 1.131h.205l.052-4.42-.205-.052c-.514 3.031-2.416 4.728-5.089 4.728M317.926 430.568c0-.822.257-1.336.926-1.645.359-.154.822-.205 1.388-.103 1.079.205 1.851 1.131 1.851 2.262 0 .977-1.439 2.158-2.365 2.725-1.081-1.234-1.8-2.109-1.8-3.239m1.593 11.001c-1.851 0-3.136-1.542-3.136-3.753 0-1.233.617-2.21 1.851-2.981a54.201 54.201 0 0 0 4.472 5.295c-.925.924-1.851 1.439-3.187 1.439m15.575 1.387c.103-.103.205-.257.308-.411a.79.79 0 0 1-.308.411m6.836-1.645c.052-.051.154-.103.206-.153-.051.05-.154.102-.206.153m9.613-13.056c-2.364 0-6.836 1.542-6.836 7.453 0 2.622 1.439 7.094 6.733 7.094 5.603 0 7.094-4.523 7.094-7.146 0-5.088-3.649-7.401-6.991-7.401m-.103 14.238c-3.187 0-4.883-3.341-4.883-6.683 0-4.985 2.569-7.196 5.14-7.196 1.646 0 4.986 1.696 4.986 7.042 0 3.291-1.85 6.837-5.243 6.837"/></svg>